<svg width="60" height="60" viewBox="0 0 60 60" fill="none" xmlns="http://www.w3.org/2000/svg">
<rect width="60" height="60" rx="14" fill="white"/>
<path d="M34.5929 26.4901C34.5929 26.4901 31.9749 24.2878 30.0459 27.316C28.1169 24.2878 25.4989 26.4901 25.4989 26.4901C23.6618 28.1418 25.4989 30.3441 25.4989 30.3441C26.1879 31.5829 29.6325 34.8405 30.0459 35.2075V35.2534C30.3674 34.9781 33.9039 31.5829 34.5929 30.3441C34.5929 30.3441 36.3841 28.1418 34.5929 26.4901Z" fill="black"/>
<path d="M30 43.099C22.7891 43.099 16.9102 37.2263 16.9102 30.0229C16.9102 22.8196 22.7891 16.9468 30 16.9468C37.2109 16.9468 43.0898 22.8196 43.0898 30.0229C43.0898 37.2263 37.2568 43.099 30 43.099ZM30 20.4338C24.7182 20.4338 20.4468 24.7007 20.4468 29.977C20.4468 35.2534 24.7182 39.5203 30 39.5203C35.2818 39.5203 39.5532 35.2534 39.5532 29.977C39.5532 24.7007 35.2818 20.4338 30 20.4338Z" fill="black"/>
<path d="M30 52C17.8747 52 8 42.1356 8 30.0229C8 17.9103 17.8747 8 30 8C42.1253 8 52 17.8644 52 29.9771C52 42.0897 42.1712 52 30 52ZM30 11.5328C19.8038 11.5328 11.4906 19.8373 11.4906 30.0229C11.4906 40.2086 19.8038 48.513 30 48.513C40.1962 48.513 48.5094 40.2086 48.5094 30.0229C48.5094 19.8373 40.2422 11.5328 30 11.5328Z" fill="black"/>
</svg>
