<?xml version="1.0" encoding="utf-8" standalone="yes"?>
<!DOCTYPE svg PUBLIC "-//W3C//DTD SVG 1.1//EN" "http://www.w3.org/Graphics/SVG/1.1/DTD/svg11.dtd">
<svg width="902" height="543" viewBox="0 0 902 543" style="fill:none;stroke:none;fill-rule:evenodd;clip-rule:evenodd;stroke-linecap:round;stroke-linejoin:round;stroke-miterlimit:1.5;" version="1.1" xmlns="http://www.w3.org/2000/svg" xmlns:xlink="http://www.w3.org/1999/xlink"><style id="fontImports">@import url("https://fonts.googleapis.com/css2?family=Roboto:wght@400;700&amp;display=block");</style><g id="items" style="isolation: isolate"><g id="blend" style="mix-blend-mode: normal"><g id="g-root-3.cu_sy_dkfnlnhj1mob-fill" data-item-order="-136102" transform="translate(231, 381.37890625)"><g id="3.cu_sy_dkfnlnhj1mob-fill" stroke="none" fill="#68403f"><g><path d="M 196.38 10.0065C 91.5195 12.857 10 34.4603 10 60.6875C 10 88.8541 104.0202 111.688 220 111.688C 335.98 111.688 430 88.8541 430 60.6875C 430 34.4401 348.355 12.8238 243.378 10C 244.316 12.7324 245.303 15.4819 246.362 18.2079C 323.294 21.2777 382 37.561 382 57.1875C 382 79.0028 309.47 96.6875 220 96.6875C 130.53 96.6875 58 79.0028 58 57.1875C 58 37.5784 116.602 21.3066 193.434 18.2161C 194.478 15.49 195.453 12.7399 196.38 10.0065Z"></path></g></g></g><g id="g-root-2.cu_sy_dkfnlnhj1moc-fill" data-item-order="-136098" transform="translate(279, 389.5859375)"><g id="2.cu_sy_dkfnlnhj1moc-fill" stroke="none" fill="#5c4938"><g><path d="M 145.434 10.0082C 68.6021 13.098701 10 29.3705 10 48.979601C 10 70.7949 82.5299 88.479601 172 88.479601C 261.47 88.479601 334 70.7949 334 48.979601C 334 29.3531 275.294 13.0698 198.362 10C 199.596 13.1774 200.927 16.323 202.391 19.3728C 257.297 22.664301 298 34.671401 298 48.979601C 298 65.8243 241.588 79.479601 172 79.479601C 102.4121 79.479601 46 65.8243 46 48.979601C 46 34.684301 86.6291 22.686 141.46 19.381701C 142.903 16.332601 144.216 13.1866 145.434 10.0082Z"></path></g></g></g><g id="g-root-1.cu_sy_94m5h7hj1ngl-fill" data-item-order="-136094" transform="translate(315, 398.958984375)"><g id="1.cu_sy_94m5h7hj1ngl-fill" stroke="none" fill="#3b5649"><g><path d="M 105.4603 10.0089C 50.6291 13.3132 10 25.3115 10 39.6069C 10 56.4516 66.4121 70.1069 136 70.1069C 205.588 70.1069 262 56.4516 262 39.6069C 262 25.2986 221.297 13.2916 166.391 10C 167.542 12.3981 168.775 14.737 170.107 16.9854C 209.668 20.2872 238 29.1705 238 39.6108C 238 52.8656 192.333 63.6108 135.999 63.6108C 79.6662 63.6108 33.999 52.8656 33.999 39.6108C 33.999 29.1787 62.2868 20.3012 101.7986 16.9932C 103.1108 14.7459 104.3257 12.4074 105.4603 10.0089Z"></path></g></g></g><g id="g-root-0.cu_sy_8z58bhj1o9a-fill" data-item-order="-136090" transform="translate(339, 278.99774169921875)"><g id="0.cu_sy_8z58bhj1o9a-fill" stroke="none" fill="#545454"><g><path d="M 91.5808 102.596741C 97.1439 85.233841 101.7895 70.734741 111.822 70.734741C 121.844 70.734741 126.491 85.103441 132.074 102.371141C 135.748 113.730341 139.826 126.344041 146.108 136.947241C 185.669 140.249041 214.001 149.132341 214.001 159.572641C 214.001 172.827741 168.334 183.572741 112 183.572741C 55.6672 183.572741 10 172.827741 10 159.572641C 10 149.140541 38.2878 140.263041 77.7996 136.955041C 83.9442 126.430941 87.9571 113.906341 91.5808 102.596741Z"></path></g></g><g id="0.cu_sy_8z58bhj1o9a-fill" stroke="none" fill="#545454"><g><path d="M 94 28.003315C 93.998234 37.94575 102.057675 46.006622 112.00011 46.006622C 121.942545 46.006622 130.001986 37.94575 130.000221 28.003315C 130.001986 18.06088 121.942545 10.000008 112.00011 10.000008C 102.057675 10.000008 93.998234 18.06088 94 28.003315"></path></g></g></g><g id="g-root--1.vector_sy_8z58bhj1o9b-fill" data-item-order="-136085" transform="translate(243.00021362304688, 303)"></g><g id="g-root--1.vector_1_sy_1uu9p2zhj1oug-fill" data-item-order="-136081" transform="translate(555, 159)"></g><g id="g-root--1.vector_2_sy_1uu9p2zhj1ouh-fill" data-item-order="-136077" transform="translate(244.00021362304688, 159)"></g><g id="g-root-tx_understa_1uu9p2zhj1oui-fill" data-item-order="0" transform="translate(273, 39)"><g id="tx_understa_1uu9p2zhj1oui-fill" stroke="none" fill="#f4f4f4"><g><text style="font: bold 20px Roboto, sans-serif; white-space: pre;" font-weight="bold" font-size="20px" font-family="Roboto, sans-serif"><tspan x="15.94" y="33.5" dominant-baseline="ideographic">Understanding Software Complexity</tspan></text></g></g></g><g id="g-root-tx_essentia_147z5ffhj1oum-fill" data-item-order="0" transform="translate(63, 135)"><g id="tx_essentia_147z5ffhj1oum-fill" stroke="none" fill="#43dd93"><g><text style="font: bold 20px Roboto, sans-serif; white-space: pre;" font-weight="bold" font-size="20px" font-family="Roboto, sans-serif"><tspan x="34.12" y="33.5" dominant-baseline="ideographic">Essential </tspan><tspan x="14.63" y="57.5" dominant-baseline="ideographic">Complexity</tspan></text></g></g></g><g id="g-root-cash_18isuuzhj4hs6-fill" data-item-order="0" transform="translate(183, 135)"></g><g id="g-root-shar_146qaezhijdog-fill" data-item-order="0" transform="translate(651, 135)"></g><g id="g-root-tx_technica_zs5nazhj1pmv-fill" data-item-order="0" transform="translate(711, 135)"><g id="tx_technica_zs5nazhj1pmv-fill" stroke="none" fill="#f79438"><g><text style="font: bold 20px Roboto, sans-serif; white-space: pre;" font-weight="bold" font-size="20px" font-family="Roboto, sans-serif"><tspan x="12" y="33.5" dominant-baseline="ideographic">Technical </tspan><tspan x="12" y="57.5" dominant-baseline="ideographic">Complexity</tspan></text></g></g></g><g id="g-root-tx_complexi_1qeg6yjhj1pmr-fill" data-item-order="0" transform="translate(15, 195)"><g id="tx_complexi_1qeg6yjhj1pmr-fill" stroke="none" fill="#f4f4f4"><g><text style="font: 15px Roboto, sans-serif; white-space: pre;" font-size="15px" font-family="Roboto, sans-serif"><tspan x="14.41" y="30.5" dominant-baseline="ideographic">Complexity inherent to </tspan><tspan x="25.37" y="48.5" dominant-baseline="ideographic">the business domain </tspan><tspan x="54.77" y="66.5" dominant-baseline="ideographic">and unavoidable</tspan></text></g></g></g><g id="g-root-tx_complexi_1hjfnsrhj1n9o-fill" data-item-order="0" transform="translate(711, 195)"><g id="tx_complexi_1hjfnsrhj1n9o-fill" stroke="none" fill="#f4f4f4"><g><text style="font: 15px Roboto, sans-serif; white-space: pre;" font-size="15px" font-family="Roboto, sans-serif"><tspan x="12" y="30.5" dominant-baseline="ideographic">Complexity from tools </tspan><tspan x="12" y="48.5" dominant-baseline="ideographic">and technologies that </tspan><tspan x="12" y="66.5" dominant-baseline="ideographic">must be managed</tspan></text></g></g></g><g id="g-root-tx_accident_v2z0vvhj31ts-fill" data-item-order="0" transform="translate(63, 279)"><g id="tx_accident_v2z0vvhj31ts-fill" stroke="none" fill="#fb6762"><g><text style="font: bold 20px Roboto, sans-serif; white-space: pre;" font-weight="bold" font-size="20px" font-family="Roboto, sans-serif"><tspan x="20.38" y="33.5" dominant-baseline="ideographic">Accidental </tspan><tspan x="14.63" y="57.5" dominant-baseline="ideographic">Complexity</tspan></text></g></g></g><g id="g-root-code_v2z0vvhj31tt-fill" data-item-order="0" transform="translate(183, 279)"></g><g id="g-root-tx_unintend_1d3m5obhj1o1x-fill" data-item-order="0" transform="translate(15, 339)"><g id="tx_unintend_1d3m5obhj1o1x-fill" stroke="none" fill="#f4f4f4"><g><text style="font: 15px Roboto, sans-serif; white-space: pre;" font-size="15px" font-family="Roboto, sans-serif"><tspan x="11.64" y="27.5" dominant-baseline="ideographic">Unintended complexity </tspan><tspan x="49.57" y="45.5" dominant-baseline="ideographic">from poor design </tspan><tspan x="13.42" y="63.5" dominant-baseline="ideographic">choices that should be </tspan><tspan x="110.1" y="81.5" dominant-baseline="ideographic">reduced</tspan></text></g></g></g><g id="g-root-3.cu_sy_dkfnlnhj1mob-stroke" data-item-order="-136102" transform="translate(231, 381.37890625)"><g id="3.cu_sy_dkfnlnhj1mob-stroke" fill="none" stroke-linecap="round" stroke-linejoin="round" stroke-miterlimit="4" stroke="#fb6762" stroke-width="2"><g><path d="M 196.3805 10.0065C 91.5195 12.857 10 34.4603 10 60.6875C 10 88.8541 104.0202 111.6875 220 111.6875C 335.9798 111.6875 430 88.8541 430 60.6875C 430 34.4401 348.3552 12.8238 243.3777 10C 244.3157 12.7324 245.3029 15.4819 246.3617 18.2079C 323.2938 21.2777 382 37.561 382 57.1875C 382 79.0028 309.4701 96.6875 220 96.6875C 130.5299 96.6875 58 79.0028 58 57.1875C 58 37.5784 116.6021 21.3066 193.4337 18.2161C 194.4783 15.49 195.4533 12.7399 196.3805 10.0065Z"></path></g></g></g><g id="g-root-2.cu_sy_dkfnlnhj1moc-stroke" data-item-order="-136098" transform="translate(279, 389.5859375)"><g id="2.cu_sy_dkfnlnhj1moc-stroke" fill="none" stroke-linecap="round" stroke-linejoin="round" stroke-miterlimit="4" stroke="#f79438" stroke-width="2"><g><path d="M 145.4337 10.0082C 68.6021 13.098701 10 29.3705 10 48.979601C 10 70.7949 82.5299 88.479601 172 88.479601C 261.4701 88.479601 334 70.7949 334 48.979601C 334 29.3531 275.2938 13.0698 198.3617 10C 199.5958 13.1774 200.9272 16.323 202.391 19.372701C 257.2975 22.664301 298 34.671401 298 48.979601C 298 65.8243 241.5879 79.479601 172 79.479601C 102.4121 79.479601 46 65.8243 46 48.979601C 46 34.684301 86.6291 22.686 141.4603 19.381701C 142.9028 16.332601 144.2157 13.1866 145.4337 10.0082Z"></path></g></g></g><g id="g-root-1.cu_sy_94m5h7hj1ngl-stroke" data-item-order="-136094" transform="translate(315, 398.958984375)"><g id="1.cu_sy_94m5h7hj1ngl-stroke" fill="none" stroke-linecap="round" stroke-linejoin="round" stroke-miterlimit="4" stroke="#43dd93" stroke-width="2"><g><path d="M 105.4603 10.0089C 50.6291 13.3132 10 25.3115 10 39.6069C 10 56.4516 66.4121 70.1069 136 70.1069C 205.5879 70.1069 262 56.4516 262 39.6069C 262 25.2986 221.2975 13.2915 166.391 10C 167.5421 12.3981 168.7751 14.737 170.1072 16.9854C 209.6677 20.2872 237.9999 29.1705 237.9999 39.6108C 237.9999 52.8656 192.3327 63.6108 135.9995 63.6108C 79.6662 63.6108 33.999 52.8656 33.999 39.6108C 33.999 29.1787 62.2868 20.3012 101.7986 16.9932C 103.1108 14.7459 104.3257 12.4074 105.4603 10.0089Z"></path></g></g></g><g id="g-root-0.cu_sy_8z58bhj1o9a-stroke" data-item-order="-136090" transform="translate(339, 278.99774169921875)"><g id="0.cu_sy_8z58bhj1o9a-stroke" fill="none" stroke-linecap="round" stroke-linejoin="round" stroke-miterlimit="4" stroke="#b7b7b7" stroke-width="2"><g><path d="M 91.5808 102.596741C 97.1439 85.233841 101.7895 70.734741 111.8222 70.734741C 121.8442 70.734741 126.4906 85.103441 132.0744 102.371141C 135.7476 113.730341 139.8265 126.344041 146.1082 136.947241C 185.6687 140.249041 214.0009 149.132341 214.0009 159.572641C 214.0009 172.827441 168.3337 183.572641 112.0004 183.572641C 55.6672 183.572641 10 172.827441 10 159.572641C 10 149.140541 38.2878 140.263041 77.7996 136.955041C 83.9442 126.430941 87.9571 113.906341 91.5808 102.596741ZM 50.209961 159.573202C 62.828761 156.495602 71.497761 147.664502 77.799661 136.955402M 146.108161 136.947602C 152.445561 147.540602 161.184161 156.370402 173.792561 159.573202"></path></g></g><g id="0.cu_sy_8z58bhj1o9a-stroke" fill="none" stroke-linecap="round" stroke-linejoin="round" stroke-miterlimit="4" stroke="#b7b7b7" stroke-width="2"><g><path d="M 94 28.003315C 93.998234 37.94575 102.057675 46.006622 112.00011 46.006622C 121.942545 46.006622 130.001986 37.94575 130.000221 28.003315C 130.001986 18.06088 121.942545 10.000008 112.00011 10.000008C 102.057675 10.000008 93.998234 18.06088 94 28.003315"></path></g></g></g><g id="g-root--1.vector_sy_8z58bhj1o9b-stroke" data-item-order="-136085" transform="translate(243.00021362304688, 303)"><g id="-1.vector_sy_8z58bhj1o9b-stroke" fill="none" stroke-linecap="round" stroke-linejoin="round" stroke-miterlimit="4" stroke="#b7b7b7" stroke-width="2"><style>.fillAsStrokeColor-dil0sregz5dw { fill:#b7b7b7; }</style><g><path d="M 10 10L 22 10C 35.2548 10 46 20.8093 46 34.1433L 46 107"></path><path d="M 43 107C 43.000001 108.656857 44.343147 110.000003 46.000001 110.000003C 47.656855 110.000003 49.000001 108.656857 49.000001 107.000003C 49.000001 105.343149 47.656855 104.000003 46.000001 104.000003C 44.343147 104.000003 43.000001 105.343149 43.000001 107.000003Z" stroke-dasharray="none" class="fillAsStrokeColor-dil0sregz5dw"></path></g></g></g><g id="g-root--1.vector_1_sy_1uu9p2zhj1oug-stroke" data-item-order="-136081" transform="translate(555, 159)"><g id="-1.vector_1_sy_1uu9p2zhj1oug-stroke" fill="none" stroke-linecap="round" stroke-linejoin="round" stroke-miterlimit="4" stroke="#b7b7b7" stroke-width="2"><style>.fillAsStrokeColor-dil0sregz5dx { fill:#b7b7b7; }</style><g><path d="M 94 10L 46.3025 10C 26.2532 10 10 26.1178 10 46L 10 251"></path><path d="M 7 251C 7 252.656861 8.343146 254.000007 10 254.000007C 11.656854 254.000007 13 252.656861 13 251.000007C 13 249.343153 11.656854 248.000007 10 248.000007C 8.343146 248.000007 7 249.343153 7 251.000007Z" stroke-dasharray="none" class="fillAsStrokeColor-dil0sregz5dx"></path></g></g></g><g id="g-root--1.vector_2_sy_1uu9p2zhj1ouh-stroke" data-item-order="-136077" transform="translate(244.00021362304688, 159)"><g id="-1.vector_2_sy_1uu9p2zhj1ouh-stroke" fill="none" stroke-linecap="round" stroke-linejoin="round" stroke-miterlimit="4" stroke="#b7b7b7" stroke-width="2"><style>.fillAsStrokeColor-4nkhmzegz30u { fill:#b7b7b7; }</style><g><path d="M 10 10L 57 10C 76.8822 10 93 26.1177 93 46L 93 266"></path><path d="M 90 266C 90.000002 267.656862 91.343148 269.000008 93.000002 269.000008C 94.656857 269.000008 96.000002 267.656862 96.000002 266.000008C 96.000002 264.343153 94.656857 263.000008 93.000002 263.000008C 91.343148 263.000008 90.000002 264.343153 90.000002 266.000008Z" stroke-dasharray="none" class="fillAsStrokeColor-4nkhmzegz30u"></path></g></g></g><g id="g-root-tx_understa_1uu9p2zhj1oui-stroke" data-item-order="0" transform="translate(273, 39)"></g><g id="g-root-tx_essentia_147z5ffhj1oum-stroke" data-item-order="0" transform="translate(63, 135)"></g><g id="g-root-cash_18isuuzhj4hs6-stroke" data-item-order="0" transform="translate(183, 135)"><g id="cash_18isuuzhj4hs6-stroke" fill="none" stroke-linecap="round" stroke-linejoin="round" stroke-miterlimit="4" stroke="#43dd93" stroke-width="2"><g><path d="M 26.007999 56.905998L 57.007999 56.905998M 31.007999 52.905998L 31.007999 42.905998M 37.007999 52.905998L 37.007999 42.905998M 47.007999 52.905998L 47.007999 42.905998M 53.007999 52.905998L 53.007999 42.905998M 29.007999 42.905998L 39.007999 42.905998M 45.007999 42.905998L 55.007999 42.905998M 11.008 18.906L 31.007999 18.906L 31.007999 32.905998L 11.008 32.905998ZM 14.4 18.906L 15.916 11.882C 16.033661 11.342435 16.566423 11.000393 17.105999 11.118L 34.577999 14.918C 35.116608 15.035692 35.458359 15.567102 35.341999 16.105999L 33.129997 26.288C 33.012306 26.826609 32.480896 27.168356 31.941999 27.052L 31.007999 26.851999M 18.007999 25.906C 18.007999 27.562855 19.351147 28.906 21.007999 28.906C 22.664856 28.906 24.007999 27.562855 24.007999 25.906C 24.007999 24.249146 22.664856 22.906 21.007999 22.906C 19.351147 22.906 18.007999 24.249146 18.007999 25.906ZM 36 29.906L 41.445999 26.275999C 41.781578 26.052689 42.218422 26.052689 42.554001 26.275999L 56.554001 35.608002C 56.832451 35.793297 56.999828 36.10553 57 36.440002L 57 37.905998C 57 38.458282 56.552284 38.905998 56 38.905998L 28 38.905998C 27.447716 38.905998 27 38.458282 27 37.905998"></path></g></g></g><g id="g-root-shar_146qaezhijdog-stroke" data-item-order="0" transform="translate(651, 135)"><g id="shar_146qaezhijdog-stroke" fill="none" stroke-linecap="round" stroke-linejoin="round" stroke-miterlimit="4" stroke="#f79438" stroke-width="2"><g><path d="M 26 15.002C 26 17.21114 29.581722 19.001999 34 19.001999C 38.418278 19.001999 42 17.21114 42 15.002C 42 12.792861 38.418278 11.002 34 11.002C 29.581722 11.002 26 12.792861 26 15.002ZM 26 21C 26 23.200001 29.582001 25 34 25C 38.417999 25 42 23.200001 42 21M 42 15L 42 27C 42 29.200001 38.417999 31 34 31C 29.582001 31 26 29.200001 26 27L 26 15M 17 57.001999L 27 57.001999M 22 53.001999L 22 57.001999M 12 49.001999L 32 49.001999M 29 39C 30.656855 39 32 40.343147 32 42L 32 49.824001C 32.048183 51.529293 30.705271 52.950989 28.999998 52.999996L 15 53C 13.296018 52.949898 11.954054 51.530102 12 49.826L 12 42C 12 40.343147 13.343145 39 15 39ZM 41 57.001999L 51 57.001999M 46 53.001999L 46 57.001999M 36 49.001999L 56 49.001999M 53 39C 54.656857 39 56 40.343147 56 42L 56 49.824001C 56.04818 51.529293 54.705269 52.950989 52.999996 52.999996L 39 53C 37.296021 52.949898 35.954056 51.530102 36 49.826L 36 42C 36 40.343147 37.343147 39 39 39ZM 46 23.001999L 52 23.001999L 52 33.001999M 22 23.001999L 16 23.001999L 16 33.001999"></path></g></g></g><g id="g-root-tx_technica_zs5nazhj1pmv-stroke" data-item-order="0" transform="translate(711, 135)"></g><g id="g-root-tx_complexi_1qeg6yjhj1pmr-stroke" data-item-order="0" transform="translate(15, 195)"></g><g id="g-root-tx_complexi_1hjfnsrhj1n9o-stroke" data-item-order="0" transform="translate(711, 195)"></g><g id="g-root-tx_accident_v2z0vvhj31ts-stroke" data-item-order="0" transform="translate(63, 279)"></g><g id="g-root-code_v2z0vvhj31tt-stroke" data-item-order="0" transform="translate(183, 279)"><g id="code_v2z0vvhj31tt-stroke" fill="none" stroke-linecap="round" stroke-linejoin="round" stroke-miterlimit="4" stroke="#fb6762" stroke-width="2"><g><path d="M 28.300039 18.17502L 28.300039 13.57502C 28.300039 12.37502 29.10004 11.575012 30.299999 11.575012L 49.5 11.575012C 49.900002 11.575012 50.5 11.775012 50.700001 11.975012L 55.5 15.975019C 55.900002 16.375019 56.299999 16.975019 56.299999 17.57502L 56.299999 42.575001C 56.299999 43.775002 55.5 44.575001 54.299999 44.575001L 39.299999 44.575001M 10 10M 36.299999 19.974979L 33.299999 22.974979L 36.299999 25.974979M 10 10M 48.299999 19.974979L 51.299999 22.974979L 48.299999 25.974979M 10 10M 40.299999 26.97504L 44.299999 17.97504M 37.099998 56.424999C 35.299999 51.224998 30.299999 47.424999 24.49996 47.424999C 18.699959 47.424999 13.49996 51.224998 11.699952 56.424999M 24.299999 29.42498L 24.299999 23.42498M 13.2998 35.224998L 35.299801 35.224998M 16.0998 37.424999C 16.299801 41.825001 19.899799 45.424999 24.299801 45.424999C 28.899799 45.424999 32.499802 41.825001 32.499802 37.224998L 32.499802 33.625C 32.499802 29.024981 28.899799 25.42498 24.299801 25.42498C 19.899799 25.42498 16.299801 29.024981 16.0998 33.424999L 16.0998 37.424999Z"></path></g></g></g><g id="g-root-tx_unintend_1d3m5obhj1o1x-stroke" data-item-order="0" transform="translate(15, 339)"></g></g></g></svg>