<svg xmlns="http://www.w3.org/2000/svg" xmlns:xlink="http://www.w3.org/1999/xlink" xmlns:serif="http://www.serif.com/" viewBox="0 0 24 30" version="1.1" xml:space="preserve" style="" x="0px" y="0px" fill-rule="evenodd" clip-rule="evenodd" stroke-linejoin="round" stroke-miterlimit="2"><g><path d="M13.135,5.75c-0.409,0 -0.792,-0.2 -1.026,-0.535l-0.897,-1.287c-0.514,-0.738 -1.357,-1.178 -2.256,-1.178c-1.253,0 -3.383,0 -4.956,0c-1.519,0 -2.75,1.231 -2.75,2.75l-0,13c-0,0.729 0.29,1.429 0.805,1.945c0.516,0.515 1.216,0.805 1.945,0.805c3.832,0 12.168,0 16,0c0.729,0 1.429,-0.29 1.945,-0.805c0.515,-0.516 0.805,-1.216 0.805,-1.945l-0,-10c-0,-0.729 -0.29,-1.429 -0.805,-1.945c-0.516,-0.515 -1.216,-0.805 -1.945,-0.805l-6.865,0Zm-4.385,9.713l0,1.799c0,0.414 0.206,0.802 0.549,1.035c0.344,0.232 0.78,0.279 1.165,0.125l1.536,-0.614l1.536,0.614c0.385,0.154 0.821,0.107 1.165,-0.125c0.343,-0.233 0.549,-0.621 0.549,-1.035l-0,-1.799c-0.85,0.798 -1.993,1.287 -3.25,1.287c-1.257,0 -2.4,-0.489 -3.25,-1.287Zm3.25,-7.213c-2.07,0 -3.75,1.68 -3.75,3.75c0,2.07 1.68,3.75 3.75,3.75c2.07,0 3.75,-1.68 3.75,-3.75c0,-2.07 -1.68,-3.75 -3.75,-3.75Z"/></g><text x="0" y="39" fill="#000000" font-size="5px" font-weight="bold" font-family="'Helvetica Neue', Helvetica, Arial-Unicode, Arial, Sans-serif">Created by Rolas Design</text><text x="0" y="44" fill="#000000" font-size="5px" font-weight="bold" font-family="'Helvetica Neue', Helvetica, Arial-Unicode, Arial, Sans-serif">from the Noun Project</text></svg>