<svg xmlns="http://www.w3.org/2000/svg" xmlns:xlink="http://www.w3.org/1999/xlink" xmlns:serif="http://www.serif.com/" viewBox="0 0 24 30" version="1.1" xml:space="preserve" style="" x="0px" y="0px" fill-rule="evenodd" clip-rule="evenodd" stroke-linejoin="round" stroke-miterlimit="2"><g><path d="M13.135,5.75c-0.409,0 -0.792,-0.2 -1.026,-0.535l-0.897,-1.287c-0.514,-0.738 -1.357,-1.178 -2.256,-1.178c-1.253,0 -3.383,0 -4.956,0c-1.519,0 -2.75,1.231 -2.75,2.75l0,13c-0,0.729 0.29,1.429 0.805,1.945c0.516,0.515 1.216,0.805 1.945,0.805c3.832,0 12.168,0 16,0c0.729,0 1.429,-0.29 1.945,-0.805c0.515,-0.516 0.805,-1.216 0.805,-1.945l0,-10c-0,-0.729 -0.29,-1.429 -0.805,-1.945c-0.516,-0.515 -1.216,-0.805 -1.945,-0.805l-6.865,0Zm-0.847,4.513l-2,6c-0.13,0.393 0.082,0.818 0.475,0.949c0.393,0.13 0.818,-0.082 0.949,-0.475l2,-6c0.13,-0.393 -0.082,-0.818 -0.475,-0.949c-0.393,-0.13 -0.818,0.082 -0.949,0.475Zm-3.318,0.707l-2,2c-0.293,0.293 -0.293,0.767 -0,1.06l2,2c0.292,0.293 0.768,0.293 1.06,0c0.293,-0.292 0.293,-0.768 0,-1.06l-1.469,-1.47c-0,-0 1.469,-1.47 1.469,-1.47c0.293,-0.292 0.293,-0.768 0,-1.06c-0.292,-0.293 -0.768,-0.293 -1.06,-0Zm5,1.06l1.469,1.47c0,0 -1.469,1.47 -1.469,1.47c-0.293,0.292 -0.293,0.768 -0,1.06c0.292,0.293 0.768,0.293 1.06,0l2,-2c0.293,-0.293 0.293,-0.767 0,-1.06l-2,-2c-0.292,-0.293 -0.768,-0.293 -1.06,-0c-0.293,0.292 -0.293,0.768 -0,1.06Z"/></g><text x="0" y="39" fill="#000000" font-size="5px" font-weight="bold" font-family="'Helvetica Neue', Helvetica, Arial-Unicode, Arial, Sans-serif">Created by Rolas Design</text><text x="0" y="44" fill="#000000" font-size="5px" font-weight="bold" font-family="'Helvetica Neue', Helvetica, Arial-Unicode, Arial, Sans-serif">from the Noun Project</text></svg>