<svg xmlns="http://www.w3.org/2000/svg" xmlns:xlink="http://www.w3.org/1999/xlink" xmlns:serif="http://www.serif.com/" viewBox="0 0 24 30" version="1.1" xml:space="preserve" style="" x="0px" y="0px" fill-rule="evenodd" clip-rule="evenodd" stroke-linejoin="round" stroke-miterlimit="2"><g><path d="M13.135,5.75c-0.409,0 -0.792,-0.2 -1.026,-0.535l-0.897,-1.287c-0.514,-0.738 -1.357,-1.178 -2.256,-1.178c-1.253,-0 -3.383,-0 -4.956,-0c-1.519,0 -2.75,1.231 -2.75,2.75l-0,13c-0,0.729 0.29,1.429 0.805,1.945c0.516,0.515 1.216,0.805 1.945,0.805c3.832,-0 12.168,-0 16,-0c0.729,0 1.429,-0.29 1.945,-0.805c0.515,-0.516 0.805,-1.216 0.805,-1.945l-0,-10c-0,-0.729 -0.29,-1.429 -0.805,-1.945c-0.516,-0.515 -1.216,-0.805 -1.945,-0.805l-6.865,-0Zm1.54,6c-0.348,-1.711 -1.862,-3 -3.675,-3c-2.07,0 -3.75,1.68 -3.75,3.75c0,1.813 1.289,3.327 3,3.675l0,1.325c0,0.414 0.336,0.75 0.75,0.75l5,0c0.414,0 0.75,-0.336 0.75,-0.75l0,-5c0,-0.414 -0.336,-0.75 -0.75,-0.75l-1.325,0Zm-0,1.5l0.575,-0l0,3.5c0,0 -3.5,0 -3.5,0l0,-0.575c1.468,-0.299 2.626,-1.456 2.925,-2.925Zm-4.425,1.372c-0.873,-0.309 -1.5,-1.143 -1.5,-2.122c0,-1.242 1.008,-2.25 2.25,-2.25c0.979,0 1.813,0.627 2.122,1.5l-2.122,0c-0.414,0 -0.75,0.336 -0.75,0.75l0,2.122Zm2.872,-1.372c-0.226,0.639 -0.733,1.146 -1.372,1.372l0,-1.372l1.372,-0Z"/></g><text x="0" y="39" fill="#000000" font-size="5px" font-weight="bold" font-family="'Helvetica Neue', Helvetica, Arial-Unicode, Arial, Sans-serif">Created by Rolas Design</text><text x="0" y="44" fill="#000000" font-size="5px" font-weight="bold" font-family="'Helvetica Neue', Helvetica, Arial-Unicode, Arial, Sans-serif">from the Noun Project</text></svg>