<svg xmlns="http://www.w3.org/2000/svg" xmlns:xlink="http://www.w3.org/1999/xlink" xmlns:serif="http://www.serif.com/" viewBox="0 0 24 30" version="1.1" xml:space="preserve" style="" x="0px" y="0px" fill-rule="evenodd" clip-rule="evenodd" stroke-linejoin="round" stroke-miterlimit="2"><g><path d="M13.135,5.75c-0.409,0 -0.792,-0.2 -1.026,-0.535l-0.897,-1.287c-0.514,-0.738 -1.357,-1.178 -2.256,-1.178c-1.253,0 -3.383,0 -4.956,0c-1.519,0 -2.75,1.231 -2.75,2.75l0,13c-0,0.729 0.29,1.429 0.805,1.945c0.516,0.515 1.216,0.805 1.945,0.805c3.832,0 12.168,0 16,0c0.729,0 1.429,-0.29 1.945,-0.805c0.515,-0.516 0.805,-1.216 0.805,-1.945l0,-10c-0,-0.729 -0.29,-1.429 -0.805,-1.945c-0.516,-0.515 -1.216,-0.805 -1.945,-0.805l-6.865,0Zm1.527,4.495c0.216,0.392 0.338,0.842 0.338,1.321l-0,3.5c-0,0.479 -0.122,0.93 -0.338,1.322l1.163,0.42c0.383,0.139 0.81,0.082 1.143,-0.152c0.334,-0.234 0.532,-0.616 0.532,-1.023l-0,-4.633c0,-0.407 -0.198,-0.789 -0.532,-1.023c-0.333,-0.234 -0.76,-0.291 -1.143,-0.153l-1.163,0.421Zm-0.662,4.821l-0,-3.5c-0,-0.966 -0.784,-1.75 -1.75,-1.75c-1.11,0 -2.89,0 -4,0c-0.966,0 -1.75,0.784 -1.75,1.75l0,3.5c0,0.967 0.784,1.75 1.75,1.75c1.11,0 2.89,0 4,0c0.966,0 1.75,-0.783 1.75,-1.75Z"/></g><text x="0" y="39" fill="#000000" font-size="5px" font-weight="bold" font-family="'Helvetica Neue', Helvetica, Arial-Unicode, Arial, Sans-serif">Created by Rolas Design</text><text x="0" y="44" fill="#000000" font-size="5px" font-weight="bold" font-family="'Helvetica Neue', Helvetica, Arial-Unicode, Arial, Sans-serif">from the Noun Project</text></svg>