<svg width="61" height="60" viewBox="0 0 61 60" fill="none" xmlns="http://www.w3.org/2000/svg">
<rect x="0.5" width="60" height="60" rx="14" fill="white"/>
<path fill-rule="evenodd" clip-rule="evenodd" d="M15.7111 24.7988C14.0587 23.6061 11.7283 23.7491 10.2378 25.2271C8.5874 26.8636 8.5874 29.5207 10.2378 31.1572L14.7045 35.5863C15.2608 36.1379 16.1622 36.1379 16.7184 35.5863L21.1851 31.1572C22.8355 29.5207 22.8355 26.8636 21.1851 25.2271C19.6946 23.7491 17.3643 23.6061 15.7111 24.7988ZM30.3843 24.7988C28.7312 23.6061 26.4008 23.7491 24.9103 25.2271C23.2599 26.8636 23.2599 29.5207 24.9103 31.1572L29.377 35.5863C29.9333 36.1379 30.8347 36.1379 31.391 35.5863L35.8576 31.1572C37.508 29.5207 37.508 26.8636 35.8576 25.2271C34.3672 23.7491 32.0368 23.6061 30.3843 24.7988ZM43.6477 29.2943L40.7391 32.1784C40.1835 32.7293 40.1835 33.6238 40.7391 34.1748C41.2947 34.7257 42.1968 34.7257 42.7524 34.1748L45.661 31.2907L48.5695 34.1748C49.1251 34.7257 50.0272 34.7257 50.5828 34.1748C51.1391 33.6238 51.1391 32.7293 50.5828 32.1784L47.6743 29.2943L50.5828 26.4096C51.1391 25.8586 51.1391 24.9641 50.5828 24.4132C50.0272 23.8623 49.1251 23.8623 48.5695 24.4132L45.661 27.2973L42.7524 24.4132C42.1968 23.8623 41.2947 23.8623 40.7391 24.4132C40.1835 24.9641 40.1835 25.8586 40.7391 26.4096L43.6477 29.2943Z" fill="black"/>
</svg>
